<svg width="140" height="22" viewBox="0 0 140 22" fill="none" xmlns="http://www.w3.org/2000/svg">
<g clip-path="url(#clip0)">
<path fill-rule="evenodd" clip-rule="evenodd" d="M121.914 17.1505L126.425 3.86001H119.001L120.312 2.54973e-06H140L138.685 3.86001H131.221L126.699 17.1505H121.914ZM118.397 -0.00175954L117.129 3.73438H104.333L103.444 6.36662H110.898L109.63 10.1028H102.174L101.133 13.1409H114.093L112.723 17.1546H94.9789L100.808 0.0024902L118.397 -0.00175954ZM77.1296 -0.00175954L87.4515 12.0803C87.8209 12.4883 88.1657 12.9178 88.484 13.3668C88.7855 12.2459 89.0198 11.4367 89.1786 10.9527L92.9063 -0.000930319H98.1623L90.9635 21.1931H87.1764L76.4164 8.52C76.2151 8.28649 76.0334 8.03854 75.8593 7.79485C75.5927 8.77473 75.3847 9.48606 75.2352 9.92873L71.3913 21.1931H66.1361L73.3493 -0.000930319L77.1296 -0.00175954ZM39.3566 4.68456L34.8843 9.71728H40.3068L39.3566 4.68456ZM43.0477 -0.00175954L47.0479 17.1505H41.8106L41.0693 13.6096H31.4259L28.3486 17.1505H23.2582L38.8022 -0.00175954H43.0477ZM54.9524 6.30381H64.3716C67.7171 6.30381 68.7293 7.38305 67.5745 10.7702L66.8154 12.9914C65.7115 16.2419 64.2544 17.1521 61.0108 17.1521H51.0014C47.6593 17.1521 46.6505 16.0695 47.7977 12.6858L47.8444 12.4913L52.3728 11.9343L51.9941 13.1383H62.411L63.34 10.411H53.9199C50.5675 10.411 49.6038 9.31982 50.7535 5.94797L51.3598 4.16485C52.4636 0.921217 53.8952 0.00414863 57.1338 0.00414863H66.3178C69.4425 0.00414863 70.6696 1.00356 69.598 4.18775L65.039 4.82034L65.3702 3.80144H55.7973L54.9524 6.30381ZM12.9847 -0.00175954L10.3304 7.81019L23.3796 -0.00175954H32.162L14.5004 10.1028L26.3337 21.1905H17.3424L8.66609 12.6943L5.77062 21.1905H-0.00337219L7.21413 -0.00341797L12.9847 -0.00175954Z" fill="white"/>
</g>
<defs>
<clipPath id="clip0">
<rect width="140" height="21.194" fill="white"/>
</clipPath>
</defs>
</svg>
