<svg width="25" height="31" viewBox="0 0 25 31" fill="none" xmlns="http://www.w3.org/2000/svg">
<path d="M19.6338 27.4651H2.25069C1.33679 27.4651 0.5 26.6141 0.5 25.4482V2.5169C0.5 1.35108 1.33679 0.5 2.25069 0.5H19.6338C20.5477 0.5 21.3845 1.35108 21.3845 2.5169V25.4523C21.3845 26.6135 20.5482 27.4651 19.6338 27.4651ZM2.25069 0.928404C1.38792 0.928404 0.777319 1.69591 0.777319 2.5169V25.4523C0.777319 26.2733 1.38791 27.0408 2.25069 27.0408H19.6338C20.4966 27.0408 21.1072 26.2733 21.1072 25.4523V2.5169C21.1072 1.69591 20.4966 0.928404 19.6338 0.928404H2.25069Z" fill="white" stroke="white"/>
<path d="M7.5415 6.0437H17.4874V6.43164H7.5415V6.0437Z" fill="white" stroke="white"/>
<path d="M3.91577 12.2751H17.4873V12.6631H3.91577V12.2751Z" fill="white" stroke="white"/>
<path d="M3.91577 15.9534H17.4873V16.3413H3.91577V15.9534Z" fill="white" stroke="white"/>
<path d="M3.91577 20.1577H17.4873V20.5457H3.91577V20.1577Z" fill="white" stroke="white"/>
<path d="M21.744 3.96307V3.53467H22.7493C23.6637 3.53467 24.5 4.38629 24.5 5.54753V28.4829C24.5 29.6487 23.6632 30.4998 22.7493 30.4998H5.36616C4.45227 30.4998 3.61548 29.6487 3.61548 28.4829V27.7528H3.8928V28.4829C3.8928 29.3039 4.50339 30.0714 5.36616 30.0714H22.7493C23.6121 30.0714 24.2226 29.3039 24.2226 28.4829V5.55157C24.2226 4.73058 23.6121 3.96307 22.7493 3.96307H21.744Z" fill="white" stroke="white"/>
</svg>
