<svg width="65" height="62" viewBox="0 0 65 62" fill="none" xmlns="http://www.w3.org/2000/svg">
<path d="M5.38281 17.6676C7.35059 13.7562 10.1309 10.4504 13.6348 7.70155C18.3828 3.95975 23.8291 1.70741 29.9355 1.01718C37.1084 0.205848 43.8496 1.50155 50.083 5.06171C51.6318 5.94569 53.0791 6.95077 54.4629 8.04061C54.8057 8.30702 54.7676 8.46444 54.4756 8.73085C51.6445 11.4191 48.8135 14.1074 46.0078 16.8199C45.6777 17.1348 45.5 17.1105 45.1445 16.8562C36.918 10.8137 24.9209 12.4484 18.7891 20.4406C17.71 21.8453 16.834 23.359 16.2246 25.0058C16.1738 25.1512 16.0723 25.2844 15.9961 25.4297C14.3584 24.243 12.708 23.0562 11.083 21.8574C9.17871 20.4648 7.27441 19.0723 5.38281 17.6676Z" fill="#E94335"/>
<path d="M15.9961 36.7883C16.542 37.9387 16.999 39.1375 17.6846 40.2152C20.5664 44.7199 24.6797 47.6141 30.1006 48.6433C34.9883 49.5758 39.6856 48.9461 44.0654 46.609C44.2178 46.5363 44.3701 46.4637 44.5098 46.391C44.5859 46.4637 44.6494 46.5484 44.7256 46.609C48.001 49.0308 51.2891 51.4527 54.5645 53.8746C52.9902 55.364 51.2002 56.5629 49.2959 57.6043C43.7734 60.6074 37.7939 61.8183 31.4971 61.3582C23.6514 60.7769 16.8848 57.8222 11.2988 52.4941C8.84863 50.157 6.83008 47.5172 5.37012 44.5019C6.72852 43.509 8.08691 42.5281 9.44531 41.5351C11.6289 39.9488 13.8125 38.3746 15.9961 36.7883Z" fill="#34A853"/>
<path d="M54.5772 53.8746C51.3018 51.4527 48.0137 49.0308 44.7383 46.609C44.6621 46.5484 44.586 46.4637 44.5225 46.391C45.6524 45.5555 46.8076 44.7441 47.7344 43.6785C49.2832 41.9105 50.3115 39.9125 50.8448 37.6723C50.9082 37.3937 50.8574 37.2969 50.5655 37.309C50.4131 37.3211 50.2735 37.309 50.1211 37.309C44.9414 37.309 39.749 37.2969 34.5694 37.3211C33.9981 37.3211 33.8711 37.1758 33.8838 36.6551C33.9092 33.1434 33.9092 29.6316 33.8838 26.1199C33.8838 25.6719 34.0108 25.5508 34.4805 25.5508C43.9766 25.5629 53.4727 25.5629 62.9815 25.5508C63.3877 25.5508 63.5528 25.6477 63.6543 26.0594C64.4287 29.3895 64.378 32.7316 63.9082 36.098C63.5274 38.7863 62.8418 41.3898 61.7881 43.9086C60.2266 47.6262 57.9287 50.8715 54.9073 53.6566C54.793 53.7414 54.6787 53.8019 54.5772 53.8746Z" fill="#4285F3"/>
<path d="M15.9961 36.7883C13.8125 38.3746 11.6289 39.9488 9.44532 41.5352C8.08692 42.516 6.72852 43.509 5.37013 44.502C4.31641 42.6371 3.63087 40.6633 3.07227 38.6289C2.00587 34.6934 1.84083 30.6973 2.42481 26.6891C2.88184 23.5406 3.83399 20.5133 5.37013 17.6797C7.27442 19.0723 9.16602 20.477 11.0703 21.8695C12.708 23.0684 14.3457 24.2551 15.9834 25.4418C15.7041 26.7375 15.3106 28.009 15.1836 29.341C14.9551 31.7629 15.1963 34.1242 15.9199 36.4492C15.9707 36.5461 15.9834 36.6672 15.9961 36.7883Z" fill="#FABB06"/>
</svg>
