<svg width="39" height="41" viewBox="0 0 39 41" fill="none" xmlns="http://www.w3.org/2000/svg">
<path d="M9.98096 5.12928V5.12518H9.48096C9.06455 5.12518 8.76646 5.4754 8.76646 5.85068V10.0983C8.76646 10.4736 9.06455 10.8238 9.48096 10.8238H29.1916C29.608 10.8238 29.9061 10.4736 29.9061 10.0983V5.85478C29.9061 5.4795 29.608 5.12928 29.1916 5.12928H9.98096ZM29.1916 11.5253H9.48096C8.77162 11.5253 8.15186 10.9093 8.15186 10.0983V5.85478C8.15186 5.04588 8.77349 4.43188 9.48096 4.43188H29.1916C29.9016 4.43188 30.5207 5.04856 30.5207 5.85478V10.1024C30.5207 10.9079 29.8983 11.5253 29.1916 11.5253Z" fill="white" stroke="white"/>
<path d="M4.47106 19.1589L4.47103 19.1589C3.96563 18.0641 4.09615 16.7917 4.80406 15.8419L8.63565 10.7131H30.2609L34.2018 15.7962L34.2021 15.7965C34.9364 16.742 35.0842 18.0159 34.5823 19.129C34.0845 20.2256 33.0849 20.8815 31.9762 20.8815H7.06297C5.96309 20.8815 4.9676 20.2349 4.47106 19.1589ZM9.16897 11.4146V11.9146L8.76839 11.6154L5.27416 16.2933C5.2741 16.2934 5.27404 16.2934 5.27399 16.2935C4.71717 17.0382 4.62702 17.992 5.01335 18.8347L5.01429 18.8367C5.39841 19.6648 6.16045 20.1841 7.06297 20.1841H31.9762C32.8835 20.1841 33.6555 19.6553 34.0313 18.8148C34.4175 17.9608 34.3121 16.9965 33.7356 16.2568C33.7356 16.2567 33.7356 16.2567 33.7355 16.2566L30.1287 11.6081L29.9786 11.4146H29.7337H9.16897Z" fill="white" stroke="white"/>
<mask id="path-4-inside-1" fill="white">
<path d="M13.0726 10.8501L7.84766 20.1243L8.52884 20.5484L13.7538 11.2743L13.0726 10.8501Z"/>
</mask>
<path d="M13.0726 10.8501L7.84766 20.1243L8.52884 20.5484L13.7538 11.2743L13.0726 10.8501Z" fill="white"/>
<path d="M7.84766 20.1243L6.99876 19.5957L6.50791 20.4669L7.35681 20.9955L7.84766 20.1243ZM13.0726 10.8501L13.5635 9.97887L12.7146 9.4503L12.2237 10.3215L13.0726 10.8501ZM13.7538 11.2743L14.6027 11.8028L15.0936 10.9316L14.2447 10.403L13.7538 11.2743ZM8.52884 20.5484L8.03798 21.4197L8.88688 21.9482L9.37773 21.077L8.52884 20.5484ZM8.69655 20.6528L13.9215 11.3787L12.2237 10.3215L6.99876 19.5957L8.69655 20.6528ZM12.5818 11.7214L13.263 12.1455L14.2447 10.403L13.5635 9.97887L12.5818 11.7214ZM12.9049 10.7457L7.67994 20.0198L9.37773 21.077L14.6027 11.8028L12.9049 10.7457ZM9.01969 19.6772L8.33851 19.253L7.35681 20.9955L8.03798 21.4197L9.01969 19.6772Z" fill="white" mask="url(#path-4-inside-1)"/>
<mask id="path-6-inside-2" fill="white">
<path d="M15.8839 10.9561L13.5146 20.4248L14.2803 20.6365L16.6496 11.1679L15.8839 10.9561Z"/>
</mask>
<path d="M15.8839 10.9561L13.5146 20.4248L14.2803 20.6365L16.6496 11.1679L15.8839 10.9561Z" fill="white"/>
<path d="M13.5146 20.4248L12.5508 20.1583L12.3081 21.1284L13.2719 21.3949L13.5146 20.4248ZM15.8839 10.9561L16.1267 9.98603L15.1628 9.71949L14.9201 10.6896L15.8839 10.9561ZM16.6496 11.1679L17.6134 11.4344L17.8561 10.4643L16.8923 10.1978L16.6496 11.1679ZM14.2803 20.6365L14.0376 21.6066L15.0014 21.8732L15.2441 20.9031L14.2803 20.6365ZM14.4785 20.6913L16.8478 11.2227L14.9201 10.6896L12.5508 20.1583L14.4785 20.6913ZM15.6412 11.9262L16.4068 12.1379L16.8923 10.1978L16.1267 9.98603L15.6412 11.9262ZM15.6858 10.9013L13.3165 20.37L15.2441 20.9031L17.6134 11.4344L15.6858 10.9013ZM14.523 19.6665L13.7574 19.4547L13.2719 21.3949L14.0376 21.6066L14.523 19.6665Z" fill="white" mask="url(#path-6-inside-2)"/>
<mask id="path-8-inside-3" fill="white">
<path d="M19.7302 11.0618H18.9385V20.5041H19.7302V11.0618Z"/>
</mask>
<path d="M19.7302 11.0618H18.9385V20.5041H19.7302V11.0618Z" fill="white"/>
<path d="M18.9385 11.0618V10.0618H17.9385V11.0618H18.9385ZM19.7302 11.0618H20.7302V10.0618H19.7302V11.0618ZM19.7302 20.5041V21.5041H20.7302V20.5041H19.7302ZM18.9385 20.5041H17.9385V21.5041H18.9385V20.5041ZM18.9385 12.0618H19.7302V10.0618H18.9385V12.0618ZM18.7302 11.0618V20.5041H20.7302V11.0618H18.7302ZM19.7302 19.5041H18.9385V21.5041H19.7302V19.5041ZM19.9385 20.5041V11.0618H17.9385V20.5041H19.9385Z" fill="white" mask="url(#path-8-inside-3)"/>
<mask id="path-10-inside-4" fill="white">
<path d="M22.2965 10.9394L21.542 11.1914L24.3963 20.6354L25.1508 20.3833L22.2965 10.9394Z"/>
</mask>
<path d="M22.2965 10.9394L21.542 11.1914L24.3963 20.6354L25.1508 20.3833L22.2965 10.9394Z" fill="white"/>
<path d="M21.542 11.1914L21.2527 10.2342L20.3042 10.551L20.5935 11.5082L21.542 11.1914ZM22.2965 10.9394L23.245 10.6226L22.9557 9.66533L22.0072 9.98215L22.2965 10.9394ZM25.1508 20.3833L25.4401 21.3406L26.3886 21.0237L26.0992 20.0665L25.1508 20.3833ZM24.3963 20.6354L23.4478 20.9522L23.7371 21.9094L24.6856 21.5926L24.3963 20.6354ZM21.8313 12.1486L22.5858 11.8966L22.0072 9.98215L21.2527 10.2342L21.8313 12.1486ZM21.348 11.2562L24.2023 20.7002L26.0992 20.0665L23.245 10.6226L21.348 11.2562ZM24.8615 19.4261L24.107 19.6781L24.6856 21.5926L25.4401 21.3406L24.8615 19.4261ZM25.3448 20.3185L22.4905 10.8746L20.5935 11.5082L23.4478 20.9522L25.3448 20.3185Z" fill="white" mask="url(#path-10-inside-4)"/>
<mask id="path-12-inside-5" fill="white">
<path d="M25.7626 11.1854L25.0823 11.6111L30.2529 20.743L30.9332 20.3173L25.7626 11.1854Z"/>
</mask>
<path d="M25.7626 11.1854L25.0823 11.6111L30.2529 20.743L30.9332 20.3173L25.7626 11.1854Z" fill="white"/>
<path d="M25.0823 11.6111L24.5896 10.7409L23.7419 11.2714L24.2346 12.1416L25.0823 11.6111ZM25.7626 11.1854L26.6103 10.6549L26.1176 9.7847L25.2699 10.3152L25.7626 11.1854ZM30.9332 20.3173L31.4259 21.1875L32.2736 20.657L31.7809 19.7868L30.9332 20.3173ZM30.2529 20.743L29.4052 21.2735L29.8979 22.1437L30.7456 21.6132L30.2529 20.743ZM25.575 12.4813L26.2553 12.0556L25.2699 10.3152L24.5896 10.7409L25.575 12.4813ZM24.9149 11.7158L30.0855 20.8478L31.7809 19.7868L26.6103 10.6549L24.9149 11.7158ZM30.4405 19.4471L29.7602 19.8728L30.7456 21.6132L31.4259 21.1875L30.4405 19.4471ZM31.1006 20.2126L25.93 11.0806L24.2346 12.1416L29.4052 21.2735L31.1006 20.2126Z" fill="white" mask="url(#path-12-inside-5)"/>
<path d="M7.91709 20.6847H7.41709V21.1847V34.4974C7.41709 35.4057 8.12468 36.1864 9.04809 36.1864H29.5114C30.4348 36.1864 31.1424 35.4057 31.1424 34.4974V21.1847V20.6847H30.6424H7.91709ZM29.5114 36.8879H9.04809C7.8343 36.8879 6.80249 35.84 6.80249 34.5015V19.9873H31.7609V34.5015C31.7609 35.8395 30.7295 36.8879 29.5114 36.8879Z" fill="white" stroke="white"/>
<mask id="path-15-inside-6" fill="white">
<path d="M23.9578 36.2726H14.6562V24.9033C14.6562 24.1612 15.2335 23.5544 15.9394 23.5544H22.6708C23.3767 23.5544 23.9539 24.1612 23.9539 24.9033V36.2726H23.9578ZM15.448 35.4444H23.1661V24.9033C23.1661 24.6163 22.9438 24.3826 22.6708 24.3826H15.9394C15.6664 24.3826 15.4441 24.6163 15.4441 24.9033V35.4444H15.448Z"/>
</mask>
<path d="M23.9578 36.2726H14.6562V24.9033C14.6562 24.1612 15.2335 23.5544 15.9394 23.5544H22.6708C23.3767 23.5544 23.9539 24.1612 23.9539 24.9033V36.2726H23.9578ZM15.448 35.4444H23.1661V24.9033C23.1661 24.6163 22.9438 24.3826 22.6708 24.3826H15.9394C15.6664 24.3826 15.4441 24.6163 15.4441 24.9033V35.4444H15.448Z" fill="white"/>
<path d="M14.6562 36.2726H13.6562V37.2726H14.6562V36.2726ZM23.9539 36.2726H22.9539V37.2726H23.9539V36.2726ZM23.1661 35.4444V36.4444H24.1661V35.4444H23.1661ZM15.4441 35.4444H14.4441V36.4444H15.4441V35.4444ZM23.9578 35.2726H14.6562V37.2726H23.9578V35.2726ZM15.6562 36.2726V24.9033H13.6562V36.2726H15.6562ZM15.6562 24.9033C15.6562 24.6658 15.8323 24.5544 15.9394 24.5544V22.5544C14.6346 22.5544 13.6562 23.6567 13.6562 24.9033H15.6562ZM15.9394 24.5544H22.6708V22.5544H15.9394V24.5544ZM22.6708 24.5544C22.7778 24.5544 22.9539 24.6658 22.9539 24.9033H24.9539C24.9539 23.6567 23.9755 22.5544 22.6708 22.5544V24.5544ZM22.9539 24.9033V36.2726H24.9539V24.9033H22.9539ZM23.9539 37.2726H23.9578V35.2726H23.9539V37.2726ZM15.448 36.4444H23.1661V34.4444H15.448V36.4444ZM24.1661 35.4444V24.9033H22.1661V35.4444H24.1661ZM24.1661 24.9033C24.1661 24.1118 23.5426 23.3826 22.6708 23.3826V25.3826C22.3449 25.3826 22.1661 25.1209 22.1661 24.9033H24.1661ZM22.6708 23.3826H15.9394V25.3826H22.6708V23.3826ZM15.9394 23.3826C15.0675 23.3826 14.4441 24.1118 14.4441 24.9033H16.4441C16.4441 25.1209 16.2652 25.3826 15.9394 25.3826V23.3826ZM14.4441 24.9033V35.4444H16.4441V24.9033H14.4441ZM15.4441 36.4444H15.448V34.4444H15.4441V36.4444Z" fill="white" mask="url(#path-15-inside-6)"/>
</svg>
